<?xml version="1.0" standalone="no"?>
<!DOCTYPE svg PUBLIC "-//W3C//DTD SVG 20010904//EN"
 "http://www.w3.org/TR/2001/REC-SVG-20010904/DTD/svg10.dtd">
<svg version="1.0" xmlns="http://www.w3.org/2000/svg"
 width="1080.000000pt" height="1080.000000pt" viewBox="0 0 1080.000000 1080.000000"
 preserveAspectRatio="xMidYMid meet">
<metadata>
Created by potrace 1.14, written by Peter Selinger 2001-2017
</metadata>
<g transform="translate(0.000000,1080.000000) scale(0.100000,-0.100000)"
fill="#000000" stroke="none">
<path d="M1496 7325 c1 -1809 3 -3300 3 -3312 1 -13 6 -23 11 -23 6 0 10 -11
10 -24 0 -14 4 -28 10 -31 5 -3 12 -28 16 -55 4 -27 10 -47 15 -44 5 3 9 -7 9
-23 0 -19 3 -24 9 -15 5 9 10 1 15 -26 3 -22 12 -45 20 -52 8 -6 25 -32 36
-56 12 -24 25 -44 30 -44 4 0 11 -11 14 -24 3 -14 14 -27 25 -31 10 -3 27 -21
37 -40 10 -19 24 -35 32 -35 7 0 15 -7 19 -16 8 -21 71 -84 84 -84 6 0 7 -5 4
-10 -3 -5 1 -10 9 -10 9 0 15 -6 14 -12 -2 -7 3 -12 10 -10 6 1 12 -2 12 -8 0
-12 60 -74 61 -63 0 4 4 -2 10 -15 5 -13 13 -21 17 -18 5 3 15 -6 22 -19 7
-14 19 -25 27 -25 7 0 12 -4 11 -8 -3 -8 32 -45 73 -77 14 -11 27 -24 30 -30
2 -5 7 -9 12 -7 4 1 7 -5 7 -14 0 -8 4 -13 9 -10 5 3 11 -4 14 -15 3 -12 10
-18 16 -14 6 3 11 2 11 -4 0 -12 60 -75 61 -64 0 4 4 -2 10 -15 5 -13 13 -20
19 -17 5 3 10 2 10 -4 0 -12 253 -266 274 -274 9 -4 16 -11 16 -17 0 -15 72
-80 90 -81 10 0 11 -2 3 -6 -10 -3 -10 -7 0 -18 7 -7 15 -11 20 -8 4 2 7 -2 7
-9 0 -7 13 -22 29 -33 16 -10 27 -23 24 -28 -3 -4 4 -11 16 -14 11 -3 18 -9
15 -14 -3 -5 2 -9 10 -9 9 0 15 -6 14 -12 -2 -7 2 -12 7 -11 6 1 20 -12 30
-28 11 -16 26 -29 33 -29 7 0 11 -4 8 -8 -3 -5 7 -17 22 -28 24 -18 34 -27 80
-81 10 -13 22 -20 26 -16 3 3 6 1 6 -5 0 -14 67 -82 81 -82 6 0 7 -4 4 -10 -3
-5 1 -10 9 -10 9 0 15 -6 14 -13 -2 -6 3 -11 10 -9 6 1 12 -2 12 -8 0 -12 60
-74 61 -63 0 4 4 -2 10 -15 5 -13 12 -21 16 -19 5 2 16 -4 26 -15 9 -10 15
-18 12 -18 -10 0 234 -237 250 -243 8 -4 15 -11 15 -16 0 -17 69 -81 88 -82
10 0 12 -3 5 -6 -10 -3 -10 -7 0 -18 7 -7 15 -11 19 -8 5 2 8 -2 8 -9 0 -7 13
-22 29 -33 16 -10 29 -24 28 -30 -1 -5 4 -9 11 -7 6 1 12 -5 12 -14 0 -8 4
-13 9 -10 5 3 11 -4 14 -15 3 -12 10 -18 16 -14 6 3 11 2 11 -4 0 -15 57 -71
64 -64 3 4 6 -1 6 -9 0 -17 26 -31 41 -22 5 3 9 12 9 20 0 8 -4 13 -9 10 -5
-4 -8 2 -6 11 2 10 4 18 5 18 2 0 3 266 4 592 0 325 -2 589 -6 587 -8 -5 -5
17 5 34 5 7 3 12 -3 12 -6 0 -8 5 -5 10 3 6 1 10 -5 10 -6 0 -8 5 -5 10 3 6
-1 10 -9 10 -9 0 -16 5 -16 11 0 13 -38 49 -52 49 -5 0 -6 5 -3 10 3 6 1 10
-4 10 -15 0 -51 37 -44 44 4 3 -5 6 -18 6 -13 0 -19 4 -13 8 6 4 4 13 -7 24
-10 9 -19 12 -21 6 -2 -5 -10 3 -18 18 -17 32 -46 64 -58 64 -12 0 -41 38 -35
44 4 3 -1 6 -11 6 -9 0 -15 4 -12 9 3 5 -4 11 -15 14 -11 3 -23 15 -26 26 -3
11 -8 19 -12 17 -3 -2 -12 2 -19 10 -7 8 -10 14 -7 14 3 0 0 6 -7 14 -9 10
-15 11 -20 2 -5 -7 -8 -6 -8 5 0 17 -40 69 -40 53 0 -5 -5 -1 -11 9 -6 9 -15
15 -20 11 -5 -3 -9 -2 -8 3 4 21 -2 33 -16 33 -8 0 -15 7 -15 15 0 8 -6 14
-12 13 -7 -2 -12 3 -10 10 2 11 -11 16 -31 13 -5 -1 -6 3 -2 9 3 5 -1 13 -9
16 -9 3 -13 10 -10 15 3 5 -2 9 -11 9 -9 0 -13 5 -10 10 3 6 -1 10 -9 10 -9 0
-16 5 -16 11 0 13 -38 49 -52 49 -5 0 -6 5 -3 10 3 6 -1 10 -9 10 -9 0 -16 5
-16 10 0 6 -10 15 -22 20 -13 5 -17 9 -10 9 10 1 10 4 0 15 -7 8 -15 13 -18
11 -3 -2 -11 3 -18 11 -7 8 -10 14 -7 14 4 0 0 7 -9 15 -8 8 -19 15 -25 15 -6
0 -11 7 -11 15 0 8 -4 14 -9 13 -5 -2 -9 0 -10 5 -2 13 -36 44 -44 40 -4 -2
-7 3 -7 11 0 9 -7 16 -16 16 -8 0 -12 4 -9 10 3 5 -1 10 -9 10 -9 0 -16 5 -16
11 0 13 -38 49 -52 49 -5 0 -6 4 -3 10 3 5 1 10 -5 10 -7 0 -21 11 -32 25 -11
14 -27 25 -36 25 -10 0 -13 3 -6 8 9 7 -14 38 -33 45 -5 1 -7 5 -5 10 1 4 -5
7 -13 7 -8 0 -15 6 -15 14 0 8 -9 18 -20 21 -11 3 -20 11 -20 16 0 12 -33 44
-54 52 -10 4 -20 16 -23 27 -3 11 -9 17 -14 14 -5 -3 -9 2 -9 11 0 9 -4 14 -9
11 -5 -3 -12 1 -15 10 -3 8 -11 12 -16 9 -6 -4 -10 -3 -9 2 3 17 -1 36 -7 30
-8 -8 -33 16 -27 26 2 4 -6 7 -19 7 -13 0 -18 4 -12 8 6 4 4 13 -8 25 -12 11
-18 13 -18 5 0 -7 -10 2 -21 19 -12 18 -25 30 -30 27 -5 -3 -9 -2 -8 3 1 4 1
68 0 141 -1 103 -4 132 -13 126 -10 -6 -10 -4 0 7 16 17 16 43 0 33 -10 -6
-10 -5 -1 7 18 22 18 443 1 433 -10 -6 -11 -4 0 7 16 17 16 43 0 33 -10 -6
-10 -5 -1 7 18 22 18 443 1 433 -10 -6 -11 -4 0 7 16 17 16 43 0 33 -10 -6
-10 -5 -1 7 18 22 18 443 1 433 -10 -6 -11 -4 0 7 6 7 12 19 12 27 0 8 -5 10
-12 6 -10 -6 -10 -5 -1 7 18 22 18 443 1 433 -10 -6 -11 -4 0 7 16 17 16 43 0
33 -10 -6 -10 -5 -1 7 18 22 18 443 1 433 -10 -6 -11 -4 0 7 16 17 16 43 0 33
-10 -6 -10 -5 -1 7 18 22 18 443 1 433 -10 -6 -11 -4 0 7 16 17 16 43 -1 33
-9 -6 -9 -5 0 7 18 22 18 443 1 433 -10 -6 -11 -4 0 7 16 17 16 43 0 33 -10
-6 -10 -5 -1 7 9 11 12 56 12 145 -1 115 1 129 16 132 10 2 15 -1 11 -6 -3 -6
15 -13 44 -17 27 -4 50 -11 50 -16 0 -5 12 -9 26 -9 14 0 23 -4 19 -10 -3 -5
3 -11 14 -11 12 -1 26 -3 31 -4 6 -1 17 -3 26 -4 8 0 13 -5 10 -9 -2 -4 7 -9
22 -10 14 -1 28 -6 31 -11 4 -5 23 -12 44 -16 20 -4 37 -11 37 -16 0 -5 9 -9
20 -9 11 0 20 -5 20 -12 0 -6 3 -8 7 -5 3 4 12 2 20 -4 7 -6 13 -8 13 -5 0 4
10 1 23 -6 12 -6 28 -13 36 -14 8 -2 17 -7 20 -12 3 -6 23 -13 44 -17 20 -4
37 -11 37 -16 0 -5 9 -9 19 -9 11 0 21 -5 23 -12 4 -10 18 -15 60 -20 9 -1 14
-6 12 -10 -3 -4 2 -8 10 -8 9 0 16 -4 16 -10 0 -5 8 -10 18 -10 10 0 27 -7 38
-15 10 -8 27 -15 37 -15 9 0 17 -4 17 -10 0 -5 9 -10 20 -10 11 0 20 -4 20
-10 0 -5 16 -12 35 -16 19 -3 35 -10 35 -15 0 -5 5 -9 11 -9 6 0 17 -7 25 -15
9 -8 24 -15 33 -15 10 0 25 -7 32 -16 13 -16 58 -39 72 -36 4 1 7 -3 7 -9 0
-7 9 -9 21 -6 15 4 18 2 10 -7 -8 -9 -7 -13 2 -13 9 0 12 106 12 483 0 265 -3
480 -7 478 -8 -5 -4 23 5 32 10 10 9 26 -1 20 -5 -3 -9 1 -9 9 0 8 3 12 7 10
4 -2 7 2 7 10 0 8 -4 12 -9 9 -4 -3 -8 2 -8 10 0 9 -7 16 -15 16 -8 0 -15 5
-15 10 0 6 -3 9 -7 9 -17 -3 -73 14 -73 22 0 5 -12 9 -26 9 -14 0 -23 4 -20 9
3 5 -10 11 -28 14 -18 3 -53 15 -77 26 -23 12 -49 21 -56 21 -7 0 -13 4 -13 9
0 5 -18 12 -40 16 -22 4 -38 10 -36 14 3 4 -5 8 -16 8 -12 1 -24 6 -27 12 -3
5 -23 12 -43 16 -21 4 -35 11 -32 16 3 5 -4 9 -16 9 -12 0 -28 7 -36 15 -9 8
-26 15 -40 15 -13 0 -24 5 -24 10 0 6 -7 10 -15 10 -8 0 -15 5 -15 10 0 6 -4
10 -10 10 -16 0 -90 34 -90 42 0 4 -16 10 -35 14 -19 3 -35 10 -35 15 0 5 -8
9 -17 9 -14 0 -15 2 -5 9 10 6 3 10 -22 15 -20 4 -34 11 -31 17 4 5 -3 9 -14
9 -11 0 -27 10 -36 23 -8 12 -16 20 -18 18 -4 -8 -53 13 -67 29 -8 9 -25 20
-37 24 -11 4 -24 14 -27 22 -3 8 -10 12 -16 9 -5 -3 -10 -2 -10 4 0 5 -10 13
-22 17 -12 3 -32 17 -45 30 -13 13 -28 24 -34 24 -5 0 -21 11 -35 25 -14 14
-31 25 -39 25 -7 0 -16 9 -20 19 -3 10 -17 22 -30 25 -14 4 -24 10 -22 14 1 4
-2 8 -6 9 -5 1 -18 13 -31 27 -12 14 -28 26 -35 26 -8 0 -12 3 -8 6 8 9 -14
30 -40 38 -11 4 -23 16 -26 27 -3 11 -15 23 -26 26 -12 3 -21 9 -21 13 0 13
-45 60 -58 60 -7 0 -12 7 -12 15 0 8 -5 15 -11 15 -5 0 -7 5 -4 10 3 6 -1 10
-9 10 -9 0 -16 3 -16 8 0 4 -11 20 -25 36 -13 16 -22 33 -18 39 3 6 1 7 -6 3
-6 -4 -14 0 -18 11 -4 10 -16 26 -27 37 -12 10 -20 22 -19 27 2 4 -8 16 -21
26 -12 10 -26 31 -30 46 -3 15 -11 25 -16 22 -6 -3 -10 2 -10 12 0 10 -9 24
-19 30 -11 7 -22 26 -26 43 -4 16 -11 30 -16 30 -5 0 -9 9 -9 20 0 11 -4 20
-9 20 -5 0 -12 14 -16 30 -4 17 -11 27 -16 24 -6 -3 -10 0 -8 7 3 29 -1 50
-10 45 -5 -4 -12 12 -16 34 -4 22 -11 40 -16 40 -5 0 -9 11 -9 25 0 14 -4 25
-9 25 -8 0 -27 102 -22 127 1 6 -3 14 -9 18 -5 3 -10 20 -10 36 0 22 -4 28
-12 23 -8 -5 -7 0 2 11 12 15 12 17 1 10 -10 -6 -13 -4 -9 6 3 8 2 32 -2 54
-4 22 -6 -1440 -4 -3250z"/>
<path d="M9320 10555 c0 -14 -4 -25 -10 -25 -5 0 -10 -5 -10 -11 0 -5 6 -7 13
-3 7 5 6 0 -3 -11 -13 -17 -13 -18 0 -10 12 6 13 5 3 -6 -7 -7 -13 -24 -13
-37 0 -13 -4 -21 -8 -18 -4 2 -9 -4 -9 -15 -1 -13 2 -17 10 -12 9 5 8 2 0 -9
-7 -8 -16 -36 -19 -62 -4 -25 -11 -46 -15 -46 -5 0 -9 -12 -9 -26 0 -14 -4
-23 -10 -19 -5 3 -10 -3 -10 -14 0 -11 -4 -22 -9 -25 -7 -5 -22 -56 -20 -72 0
-4 -3 -10 -8 -13 -11 -7 -43 -75 -43 -90 0 -6 -4 -11 -10 -11 -5 0 -10 -5 -10
-11 0 -6 -7 -17 -15 -25 -8 -9 -15 -24 -15 -35 0 -11 -4 -17 -10 -14 -5 3 -10
1 -10 -4 0 -22 -2 -26 -16 -34 -8 -4 -14 -15 -14 -23 0 -18 -25 -46 -34 -37
-3 4 -6 -1 -6 -10 0 -9 -11 -27 -24 -40 -14 -14 -22 -28 -19 -31 4 -3 1 -6 -5
-6 -7 0 -12 -4 -12 -10 0 -5 -20 -31 -45 -57 -25 -25 -45 -51 -45 -55 0 -5 -4
-7 -9 -4 -5 3 -12 -6 -15 -19 -4 -14 -11 -23 -16 -20 -6 3 -10 1 -10 -4 0 -6
-7 -11 -15 -11 -8 0 -14 -3 -14 -7 4 -22 -3 -31 -26 -37 -14 -4 -23 -11 -20
-15 7 -12 -24 -43 -35 -36 -8 5 -25 -24 -21 -38 1 -5 -3 -6 -9 -2 -5 3 -23 -8
-40 -25 -16 -17 -30 -28 -30 -25 0 5 -23 -14 -69 -57 -15 -16 -35 -28 -44 -28
-9 0 -18 -9 -22 -19 -3 -10 -17 -22 -30 -25 -14 -4 -25 -11 -25 -16 0 -6 -7
-10 -16 -10 -8 0 -13 -4 -10 -9 4 -5 -7 -12 -24 -16 -17 -4 -28 -11 -24 -16 3
-5 -2 -9 -10 -9 -9 0 -16 -4 -16 -10 0 -5 -11 -12 -25 -16 -14 -3 -31 -14 -38
-24 -6 -9 -25 -20 -42 -24 -16 -4 -32 -11 -35 -16 -11 -17 -104 -69 -113 -63
-6 3 -7 1 -3 -5 4 -7 1 -12 -9 -12 -9 0 -14 -4 -11 -9 3 -5 -10 -12 -29 -15
-19 -4 -35 -11 -35 -16 0 -6 -9 -10 -21 -10 -11 0 -18 -4 -15 -9 3 -5 -10 -12
-29 -15 -19 -4 -35 -11 -35 -16 0 -6 -9 -10 -20 -10 -11 0 -20 -4 -20 -9 0 -5
-13 -12 -30 -16 -16 -4 -30 -11 -30 -16 0 -5 -9 -9 -20 -9 -11 0 -20 -4 -20
-9 0 -5 -18 -11 -40 -15 -22 -3 -40 -11 -40 -16 0 -6 -7 -10 -15 -10 -8 0 -15
-4 -15 -9 0 -5 -20 -12 -45 -15 -25 -4 -45 -10 -45 -14 0 -9 -49 -32 -67 -32
-7 0 -13 -5 -13 -10 0 -6 -3 -9 -7 -9 -18 4 -93 -14 -93 -22 0 -5 -9 -9 -20
-9 -11 0 -20 -4 -20 -9 0 -5 -18 -12 -40 -16 -22 -4 -40 -11 -40 -16 0 -5 -9
-9 -19 -9 -11 0 -21 -4 -23 -10 -1 -5 -13 -11 -26 -13 -13 -2 -28 -10 -33 -18
-7 -12 -9 -12 -9 0 0 10 -5 8 -17 -6 -16 -18 -67 -39 -85 -35 -5 1 -8 -2 -8
-8 0 -5 -7 -10 -16 -10 -8 0 -13 -4 -10 -9 4 -5 -12 -12 -34 -16 -22 -4 -38
-11 -34 -16 3 -5 -2 -9 -10 -9 -9 0 -16 -5 -16 -11 0 -5 -4 -8 -9 -4 -5 3 -12
1 -16 -5 -3 -5 -17 -10 -31 -10 -14 0 -22 -4 -19 -10 3 -5 -1 -10 -9 -10 -9 0
-16 -4 -16 -10 0 -5 -7 -10 -17 -10 -9 0 -14 -3 -10 -6 7 -8 -61 -44 -83 -44
-12 0 -12 -2 -2 -9 10 -6 6 -10 -15 -16 -15 -5 -32 -7 -38 -6 -5 2 -7 -1 -3
-5 7 -6 -11 -20 -52 -41 -22 -10 -40 -30 -35 -37 3 -3 2 -4 -1 -1 -4 2 -16 -1
-28 -7 -11 -7 -24 -11 -28 -10 -5 1 -7 -1 -5 -6 1 -4 -2 -8 -8 -10 -5 -2 -14
-10 -18 -18 -4 -8 -13 -14 -19 -14 -6 0 -21 -10 -32 -22 -12 -13 -32 -29 -44
-37 -11 -8 -18 -19 -15 -24 3 -6 1 -7 -5 -3 -6 3 -32 -14 -57 -39 -26 -25 -51
-45 -57 -45 -5 0 -7 -3 -5 -7 3 -5 -1 -14 -9 -21 -10 -9 -14 -9 -14 -1 0 6
-10 -1 -22 -17 -13 -16 -22 -32 -21 -36 2 -5 0 -7 -5 -6 -14 3 -42 -14 -36
-23 3 -5 -2 -9 -11 -9 -9 0 -13 -4 -10 -10 3 -5 2 -10 -3 -10 -5 0 -15 -11
-22 -25 -10 -18 -16 -22 -22 -13 -6 10 -8 9 -8 -3 0 -20 -55 -81 -64 -72 -3 3
-9 -8 -12 -26 -4 -17 -9 -30 -12 -27 -6 7 -32 -20 -32 -33 0 -5 -11 -21 -24
-34 -13 -13 -27 -33 -30 -45 -4 -12 -12 -22 -17 -22 -5 0 -9 -7 -9 -15 0 -8
-4 -15 -10 -15 -5 0 -12 -11 -16 -25 -3 -14 -10 -25 -16 -25 -5 0 -7 -4 -4 -9
3 -4 -3 -19 -14 -31 -11 -13 -20 -35 -20 -49 0 -20 -2 -23 -10 -11 -8 12 -10
12 -10 -5 0 -11 -7 -29 -15 -39 -8 -11 -15 -30 -15 -43 0 -13 -4 -23 -10 -23
-5 0 -10 -12 -10 -26 0 -14 -4 -23 -9 -20 -5 3 -12 -19 -16 -49 -3 -30 -11
-55 -16 -55 -5 0 -9 -15 -9 -34 0 -19 -4 -38 -10 -41 -5 -3 -10 -17 -10 -31 0
-13 -4 -24 -10 -24 -5 0 -10 -5 -10 -11 0 -5 6 -7 13 -3 7 5 6 0 -3 -11 -13
-16 -15 -418 -16 -3477 -1 -2929 1 -3458 12 -3458 8 0 14 7 14 16 0 8 5 12 10
9 6 -3 10 1 10 10 0 9 3 14 8 12 7 -4 40 26 45 41 1 4 6 6 10 4 5 -1 11 7 14
18 3 11 9 17 14 14 5 -3 9 2 9 10 0 9 6 15 13 14 6 -2 11 3 9 10 -1 6 6 12 15
12 15 0 16 2 3 10 -13 9 -13 10 0 11 8 1 18 1 23 0 4 0 7 6 7 14 0 8 7 15 15
15 8 0 15 7 15 16 0 8 5 12 10 9 6 -3 10 1 10 9 0 9 7 16 16 16 8 0 12 5 9 10
-3 6 1 10 9 10 8 0 18 9 21 20 4 11 11 18 16 15 5 -4 9 -2 9 3 0 14 36 52 44
45 3 -3 6 1 6 11 0 9 5 14 10 11 6 -3 10 1 10 10 0 9 5 13 10 10 6 -3 14 4 19
17 6 13 10 19 10 14 1 -6 12 4 24 22 13 17 27 29 30 25 4 -3 7 1 7 11 0 9 5
14 10 11 6 -3 10 1 10 9 0 9 7 16 15 16 8 0 15 7 15 16 0 8 5 12 10 9 6 -3 10
1 10 9 0 9 7 16 16 16 8 0 12 5 9 10 -3 6 1 10 9 10 8 0 18 9 21 20 4 11 11
18 16 15 5 -4 9 -2 9 3 0 14 36 52 44 45 3 -3 6 1 6 11 0 9 5 14 10 11 6 -3
10 1 10 10 0 9 5 13 10 10 6 -3 14 4 19 17 6 13 10 19 10 14 1 -6 12 4 24 22
13 17 27 29 30 25 4 -3 7 1 7 10 0 10 6 16 13 15 6 -2 11 3 9 10 -1 6 5 12 14
12 8 0 12 4 9 10 -3 5 2 10 11 10 10 0 15 3 11 6 -8 8 16 33 26 27 4 -2 7 6 7
19 0 18 2 20 10 8 8 -13 10 -12 10 3 0 9 7 17 16 17 8 0 12 4 9 10 -3 5 1 10
10 10 9 0 14 4 10 9 -3 5 4 12 15 16 11 4 18 11 15 16 -4 5 1 9 9 9 9 0 15 5
14 12 -2 7 4 12 12 13 8 1 14 6 12 13 -1 7 5 12 14 12 8 0 13 4 10 9 -3 5 3
11 14 14 11 3 19 11 18 19 -2 7 3 12 10 10 6 -1 12 5 12 14 0 8 5 12 11 9 6
-4 13 2 16 14 3 11 9 18 14 15 5 -3 9 2 9 11 0 9 4 14 9 11 5 -3 11 4 14 15 3
12 10 18 16 14 6 -3 11 1 11 10 0 9 4 14 9 10 5 -3 12 4 16 15 4 11 11 18 16
15 5 -4 9 1 9 10 0 9 4 13 10 10 6 -3 10 1 10 9 0 9 8 16 18 16 14 0 15 2 2
10 -12 8 -11 10 8 10 12 0 21 5 20 13 -2 6 3 11 10 9 8 -1 16 7 19 18 3 11 9
17 14 14 5 -3 9 2 9 10 0 9 5 15 12 14 7 -2 12 4 13 12 1 8 6 14 13 12 7 -1
12 5 12 13 0 8 6 14 13 13 6 -2 11 3 9 9 -1 7 5 13 13 13 8 0 15 7 15 16 0 8
5 12 10 9 6 -3 10 1 10 9 0 9 7 16 16 16 8 0 12 5 9 10 -3 6 1 10 9 10 8 0 18
9 21 20 4 11 11 18 16 15 5 -4 9 -2 9 3 0 14 36 52 44 45 3 -3 6 1 6 11 0 9 5
14 10 11 6 -3 10 1 10 10 0 9 5 13 10 10 6 -3 14 4 19 17 6 13 10 19 10 14 1
-6 12 4 24 22 13 17 27 29 30 25 4 -3 7 1 7 11 0 10 5 14 11 11 6 -4 13 2 16
14 3 11 9 18 14 15 5 -3 9 2 9 11 0 9 4 14 9 11 5 -3 11 4 14 15 3 12 10 18
16 14 6 -3 11 1 11 10 0 9 4 14 9 10 5 -3 12 4 16 15 4 11 11 18 16 15 5 -4 9
1 9 10 0 9 5 13 10 10 6 -3 10 1 10 9 0 9 8 16 18 16 14 0 15 2 2 10 -12 8
-11 10 8 10 12 0 21 5 20 13 -2 6 3 11 10 9 8 -1 16 7 19 18 3 11 9 17 14 14
5 -3 9 2 9 10 0 9 5 15 12 14 7 -2 12 4 13 12 1 8 6 14 13 12 7 -1 12 5 12 13
0 8 6 14 13 13 6 -2 11 3 9 10 -1 6 5 12 13 12 8 0 15 7 15 16 0 8 5 12 10 9
6 -3 10 1 10 9 0 9 7 16 16 16 8 0 12 4 9 10 -3 6 1 10 9 10 8 0 18 9 21 20 4
11 11 18 16 15 5 -4 9 -2 9 3 0 14 36 52 44 45 3 -3 6 1 6 11 0 9 5 14 10 11
6 -3 10 1 10 10 0 9 5 13 10 10 6 -3 14 4 19 17 6 13 10 19 10 14 1 -6 12 4
24 22 13 17 27 29 30 25 4 -3 7 1 7 10 0 10 6 16 13 15 6 -2 11 3 9 10 -1 6 5
12 13 12 8 0 15 7 15 16 0 8 5 12 10 9 6 -3 10 1 10 9 0 9 7 16 16 16 8 0 12
4 9 10 -3 5 1 10 9 10 8 0 18 9 21 20 4 11 11 18 16 15 5 -4 9 -2 9 3 0 14 36
52 44 45 3 -3 6 1 6 11 0 9 4 15 9 11 5 -3 12 4 16 15 4 11 11 18 16 15 5 -4
9 2 9 11 0 10 3 14 7 11 3 -4 16 7 28 23 12 16 25 27 28 23 4 -3 7 1 7 10 0
10 6 16 13 15 6 -2 11 3 9 10 -1 6 5 12 14 12 8 0 12 4 9 10 -3 5 2 10 11 10
10 0 15 3 11 6 -8 8 16 33 26 27 4 -2 7 6 7 19 0 18 2 20 10 8 8 -13 10 -12
10 3 0 9 7 17 16 17 8 0 12 5 9 10 -3 6 1 10 10 10 9 0 14 4 10 9 -3 5 4 12
15 16 11 4 18 11 15 16 -4 5 1 9 10 9 9 0 13 5 10 11 -4 6 2 13 14 16 11 3 18
9 15 14 -3 5 2 9 11 9 9 0 14 4 11 9 -3 5 3 11 14 14 11 3 19 11 18 19 -2 7 3
12 10 10 6 -1 12 5 12 14 0 8 5 12 11 9 6 -4 13 2 16 14 3 11 9 18 14 15 5 -3
9 2 9 10 0 9 5 15 12 14 7 -2 12 4 13 12 1 8 6 14 13 12 7 -1 12 5 12 14 0 8
4 13 9 9 5 -3 12 4 16 15 4 11 11 18 16 15 5 -4 9 1 9 10 0 9 5 13 10 10 6 -3
10 1 10 9 0 9 8 16 18 16 14 0 15 2 2 10 -12 8 -10 10 8 10 13 0 21 3 19 8 -6
9 19 33 27 25 3 -4 6 1 6 11 0 9 5 14 10 11 6 -3 10 1 10 9 0 9 6 15 13 14 6
-2 11 3 9 10 -1 6 5 12 13 12 8 0 14 6 13 13 -2 6 3 11 10 9 8 -1 16 7 19 18
3 11 9 17 14 14 5 -3 9 3 9 12 0 10 3 14 6 11 6 -6 44 35 44 48 0 3 11 16 25
29 14 13 25 28 25 35 0 6 4 11 10 11 5 0 12 11 16 25 3 14 10 25 15 25 5 0 9
10 9 23 0 16 3 18 9 8 6 -10 11 -4 16 20 4 19 16 46 26 61 11 14 19 34 19 43
0 9 4 14 9 11 5 -3 12 19 16 49 3 31 11 53 16 49 5 -3 9 -2 8 3 -5 29 2 53 14
47 7 -5 6 0 -3 11 -8 10 -10 16 -3 12 7 -5 12 -1 13 10 4 43 8 6563 4 6563 -2
0 -4 -11 -4 -25z m-930 -2483 c0 -15 6 -34 13 -41 10 -11 10 -13 0 -7 -10 5
-13 -10 -13 -66 0 -45 5 -79 13 -87 10 -11 10 -13 0 -7 -10 5 -13 -10 -13 -66
0 -45 5 -79 13 -87 10 -11 10 -13 0 -7 -10 6 -13 -17 -13 -99 0 -82 3 -104 13
-99 9 6 9 5 0 -7 -17 -21 -18 -243 -1 -233 10 6 11 4 1 -7 -7 -7 -13 -24 -13
-37 0 -16 4 -21 13 -16 10 6 10 4 0 -7 -8 -8 -13 -44 -13 -97 0 -64 3 -81 13
-76 9 6 9 5 0 -7 -17 -21 -18 -243 -1 -233 10 6 11 4 1 -7 -7 -7 -13 -24 -13
-37 0 -16 4 -21 13 -16 10 6 10 4 0 -7 -8 -8 -13 -44 -13 -97 0 -64 3 -81 13
-76 9 6 9 5 0 -7 -16 -21 -17 -247 -1 -267 10 -12 10 -14 1 -8 -10 5 -13 -10
-13 -66 0 -45 5 -79 13 -87 10 -11 10 -13 0 -7 -10 5 -13 -10 -13 -66 0 -45 5
-79 13 -87 10 -11 10 -13 0 -7 -10 5 -13 -10 -13 -66 0 -45 5 -79 13 -87 10
-11 10 -13 0 -7 -10 5 -13 -10 -13 -66 0 -45 5 -79 13 -87 10 -11 10 -13 0 -7
-10 5 -13 -10 -13 -66 0 -45 5 -79 13 -87 10 -11 10 -13 0 -7 -10 5 -13 -10
-13 -66 0 -45 5 -79 13 -87 10 -11 10 -13 0 -7 -10 5 -13 -10 -13 -66 0 -45 5
-79 13 -87 10 -11 10 -13 0 -7 -10 6 -13 -17 -13 -99 0 -82 3 -104 13 -99 9 6
9 5 0 -7 -17 -21 -18 -243 -1 -233 10 6 11 4 1 -7 -7 -7 -13 -24 -13 -37 0
-16 4 -21 13 -16 10 6 10 4 0 -7 -8 -8 -13 -44 -13 -97 0 -64 3 -81 13 -76 9
6 9 5 0 -7 -17 -21 -18 -243 -1 -233 10 6 11 4 1 -7 -7 -7 -13 -23 -13 -36 0
-13 -4 -23 -9 -23 -5 0 -13 -9 -16 -20 -4 -11 -11 -18 -16 -15 -5 4 -9 -4 -9
-17 0 -13 -4 -18 -8 -12 -4 6 -13 4 -24 -7 -12 -13 -13 -19 -5 -23 7 -2 2 -5
-11 -5 -13 -1 -20 -5 -17 -11 3 -6 2 -10 -3 -10 -12 0 -82 -69 -82 -81 0 -4
-9 -13 -21 -19 -27 -15 -99 -87 -99 -100 0 -5 -10 -15 -22 -21 -26 -14 -58
-48 -58 -61 0 -5 -4 -6 -10 -3 -5 3 -10 -1 -10 -10 0 -9 -4 -13 -10 -10 -5 3
-10 2 -10 -4 0 -10 -46 -61 -55 -61 -3 0 -14 -9 -24 -19 -14 -14 -16 -21 -8
-25 7 -2 2 -5 -10 -5 -13 -1 -23 -5 -23 -11 0 -14 -37 -50 -45 -42 -3 3 -8 -4
-12 -16 -3 -12 -8 -20 -12 -18 -3 2 -12 -2 -19 -10 -10 -11 -10 -14 0 -15 7 0
3 -4 -9 -9 -13 -5 -23 -14 -23 -20 0 -5 -8 -10 -17 -10 -9 0 -14 -3 -10 -6 8
-8 -16 -33 -25 -27 -5 2 -8 -3 -8 -12 0 -9 -4 -13 -10 -10 -5 3 -10 2 -10 -4
0 -10 -46 -61 -55 -61 -3 0 -14 -9 -24 -19 -14 -14 -16 -21 -8 -25 7 -2 2 -5
-10 -5 -13 -1 -23 -5 -23 -11 0 -14 -37 -50 -45 -42 -3 3 -8 -4 -12 -16 -3
-12 -8 -20 -12 -18 -3 2 -12 -2 -19 -10 -10 -11 -10 -14 0 -15 7 0 3 -4 -9 -9
-13 -5 -23 -14 -23 -20 0 -5 -7 -10 -16 -10 -8 0 -12 -5 -9 -10 3 -5 2 -10 -3
-10 -13 0 -47 -32 -61 -57 -6 -13 -16 -23 -21 -23 -13 0 -85 -72 -100 -99 -6
-12 -15 -21 -19 -21 -12 0 -81 -70 -81 -82 0 -5 -4 -6 -10 -3 -6 3 -10 -4 -10
-17 0 -13 -4 -18 -8 -12 -4 6 -13 4 -24 -7 -12 -13 -13 -19 -5 -23 7 -2 2 -5
-11 -5 -13 -1 -20 -5 -17 -11 3 -6 2 -10 -3 -10 -12 0 -82 -68 -82 -80 0 -5
-9 -14 -21 -20 -35 -19 -99 -88 -86 -94 7 -2 4 -5 -6 -5 -18 -1 -87 -66 -87
-82 0 -6 -4 -7 -10 -4 -5 3 -10 -1 -10 -10 0 -9 -4 -13 -10 -10 -5 3 -10 2
-10 -4 0 -10 -46 -61 -55 -61 -3 0 -14 -9 -24 -19 -14 -14 -16 -21 -8 -25 7
-2 2 -5 -10 -5 -13 -1 -23 -7 -23 -15 0 -21 -30 -29 -31 -8 -1 9 -2 33 -3 52
-1 19 -5 41 -10 49 -6 10 -6 12 3 7 14 -9 11 30 -3 53 -6 10 -5 12 2 7 16 -10
15 16 0 33 -10 11 -10 13 0 7 7 -4 12 -2 12 6 0 8 -6 20 -12 27 -10 11 -10 13
0 7 16 -10 16 35 0 53 -11 11 -10 12 0 7 15 -9 13 29 -2 53 -6 10 -5 12 2 7
17 -10 16 56 0 73 -11 11 -10 12 0 7 15 -9 13 29 -2 53 -6 10 -5 12 2 7 14 -8
11 51 -2 73 -6 10 -5 12 3 7 14 -9 11 30 -3 53 -6 10 -5 12 2 7 16 -10 15 16
0 33 -10 11 -10 13 0 7 16 -9 16 16 0 33 -10 11 -10 13 0 7 16 -10 16 35 0 53
-11 11 -10 12 0 7 15 -9 13 29 -2 53 -6 10 -5 12 2 7 17 -10 16 56 0 73 -11
11 -10 12 0 7 15 -9 13 29 -2 53 -6 10 -5 12 2 7 14 -8 11 51 -2 73 -6 10 -5
12 3 7 14 -9 11 30 -3 53 -6 10 -5 12 2 7 16 -10 15 16 0 33 -10 11 -10 13 0
7 7 -4 12 -2 12 6 0 8 -6 20 -12 27 -10 11 -10 13 0 7 8 -5 12 0 12 16 0 13
-6 30 -12 37 -11 11 -10 12 0 7 15 -9 13 29 -2 53 -6 10 -5 12 2 7 17 -10 16
56 0 73 -11 11 -10 12 0 7 15 -9 13 29 -2 53 -6 10 -5 12 2 7 14 -8 11 51 -2
73 -6 10 -5 12 3 7 14 -9 11 30 -3 53 -6 10 -5 12 2 7 16 -10 15 16 0 33 -10
11 -10 13 0 7 7 -4 12 -2 12 6 0 8 -6 20 -12 27 -10 11 -10 13 0 7 8 -5 12 0
12 16 0 13 -6 30 -12 37 -11 11 -10 12 0 7 15 -9 13 29 -2 53 -6 10 -5 12 2 7
17 -10 16 56 0 73 -11 11 -10 12 0 7 15 -9 13 29 -2 53 -6 10 -5 12 2 7 14 -8
11 51 -2 73 -6 10 -5 12 3 7 14 -9 11 30 -3 53 -6 10 -5 12 2 7 16 -10 16 36
0 53 -11 11 -10 12 0 7 15 -9 13 29 -2 53 -6 10 -5 12 2 7 17 -10 16 76 0 93
-11 11 -10 12 0 7 15 -9 13 29 -2 53 -6 10 -5 12 2 7 17 -10 16 76 0 93 -11
11 -10 12 0 7 15 -9 13 29 -2 53 -6 10 -5 12 2 7 17 -10 16 76 0 93 -11 11
-10 12 0 7 15 -9 13 29 -2 53 -6 10 -5 12 2 7 17 -10 16 76 0 93 -11 11 -10
12 0 7 15 -9 13 29 -2 53 -6 10 -5 12 2 7 17 -10 16 76 0 93 -11 11 -10 12 0
7 15 -9 13 29 -2 53 -6 10 -5 12 2 7 17 -10 16 76 0 93 -11 11 -10 12 0 7 15
-9 13 29 -2 53 -6 10 -5 12 2 7 17 -10 16 76 0 93 -11 11 -10 12 0 7 15 -9 13
29 -2 53 -6 10 -5 12 2 7 17 -10 16 76 0 93 -11 11 -10 12 0 7 15 -9 13 29 -2
53 -6 10 -5 12 2 7 17 -10 16 76 0 93 -11 11 -10 12 0 7 15 -9 13 29 -2 53 -6
10 -5 12 2 7 17 -10 16 76 0 93 -11 11 -10 12 0 7 15 -9 13 29 -2 53 -6 10 -5
12 2 7 17 -10 16 76 0 93 -11 11 -10 12 0 7 15 -9 13 29 -2 53 -6 10 -5 12 2
7 17 -10 16 76 0 93 -11 11 -10 12 0 7 15 -9 13 29 -2 53 -6 9 -5 12 2 7 7 -4
10 11 10 46 0 108 4 163 12 143 4 -12 9 13 13 65 4 49 12 87 18 89 8 2 7 6 -2
12 -10 6 -11 9 -1 9 6 0 12 8 12 18 0 10 4 22 9 27 6 6 12 21 14 35 7 35 29
80 37 75 4 -2 7 1 7 8 0 20 36 97 45 97 4 0 8 5 8 11 0 6 9 23 20 39 11 15 17
30 13 34 -3 3 -1 6 5 6 7 0 12 7 12 16 0 8 4 13 9 10 5 -3 12 5 15 18 3 14 15
28 26 31 11 3 21 11 21 16 1 5 2 15 3 22 0 6 8 12 16 12 8 1 14 6 13 13 -2 7
4 12 13 12 8 0 12 5 9 10 -3 6 -2 10 3 10 4 0 29 20 54 44 26 24 49 42 51 39
3 -2 8 5 12 16 3 12 17 24 31 27 13 3 24 10 24 15 0 5 10 9 23 9 16 0 18 3 9
9 -11 6 -8 10 10 14 13 4 34 17 48 29 13 13 26 22 27 20 2 -1 15 1 29 4 19 5
22 9 12 15 -9 6 -7 9 10 9 12 0 22 4 22 9 0 5 14 13 32 16 17 4 41 16 52 27
12 11 33 22 48 25 15 3 25 9 22 14 -3 5 7 9 23 9 19 0 24 3 15 9 -10 6 -2 11
25 16 21 5 42 7 48 6 5 -2 7 0 3 4 -11 11 18 35 42 35 12 0 19 4 16 9 -4 5 12
12 34 16 22 4 38 11 34 16 -3 5 6 9 19 9 14 0 28 7 31 16 3 8 10 12 16 9 9 -6
68 21 80 37 3 3 22 9 42 13 23 4 35 11 31 18 -4 6 0 8 10 4 10 -4 20 0 25 9 5
9 12 15 15 14 22 -4 76 14 70 23 -4 6 0 8 11 4 10 -4 19 -1 23 9 5 13 7 13 14
2 6 -9 9 -10 9 -1 0 7 18 16 40 19 22 4 37 10 34 15 -3 5 7 9 21 9 15 0 24 4
20 10 -4 6 5 10 20 10 15 0 39 6 53 14 61 31 125 51 151 47 7 -1 10 2 6 8 -3
6 1 11 9 11 11 0 16 -9 16 -28z"/>
<path d="M5407 9562 c-9 -10 -20 -33 -23 -50 -4 -17 -10 -29 -15 -26 -5 3 -9
-2 -9 -11 0 -9 -7 -23 -15 -31 -8 -9 -15 -26 -15 -40 0 -13 -4 -24 -10 -24 -5
0 -10 -7 -10 -16 0 -8 -4 -12 -10 -9 -6 4 -10 -5 -10 -19 0 -14 -4 -26 -10
-26 -5 0 -10 -5 -10 -11 0 -9 -28 -77 -36 -88 -4 -5 -36 -8 -92 -10 -24 0 -41
-5 -38 -9 3 -5 -1 -9 -9 -9 -8 0 -12 3 -10 7 2 4 -2 7 -10 7 -8 0 -12 -4 -9
-9 3 -4 -16 -8 -41 -8 -31 0 -44 -4 -39 -11 4 -7 -1 -7 -16 1 -15 8 -20 8 -16
1 5 -7 -8 -11 -38 -12 -70 -2 -71 -3 -72 -26 -1 -15 6 -23 22 -27 13 -4 24
-11 24 -16 0 -7 48 -58 112 -117 7 -7 18 -18 25 -25 7 -7 18 -18 25 -25 7 -7
18 -18 25 -25 7 -7 19 -19 27 -25 8 -7 13 -23 10 -35 -2 -13 -5 -42 -6 -65 0
-23 -5 -40 -10 -37 -4 3 -8 -12 -8 -33 0 -22 -6 -45 -12 -51 -10 -10 -10 -15
1 -21 8 -5 9 -10 3 -12 -6 -2 -14 -38 -17 -80 l-7 -77 26 5 c14 3 26 9 26 14
0 5 7 9 15 9 8 0 15 4 15 10 0 5 17 12 38 16 20 4 31 9 23 12 -14 5 53 41 77
42 6 0 12 5 12 10 0 6 9 10 20 10 11 0 20 4 20 9 0 5 14 12 30 16 17 4 30 11
30 16 0 5 12 9 26 9 14 0 23 -4 20 -9 -3 -5 10 -12 29 -15 19 -4 35 -11 35
-16 0 -6 9 -10 21 -10 11 0 17 -4 14 -10 -3 -5 3 -10 14 -10 11 0 26 -7 35
-15 8 -8 22 -15 30 -15 9 0 16 -4 16 -10 0 -5 16 -12 35 -16 19 -3 35 -10 35
-15 0 -5 6 -9 14 -9 8 0 16 -4 18 -9 2 -4 13 -11 25 -15 20 -7 22 -4 21 28 -1
19 -5 33 -10 30 -4 -3 -8 10 -9 28 0 18 -2 42 -4 53 -2 11 -5 41 -7 67 -2 25
-6 44 -10 41 -5 -2 -8 13 -8 34 0 22 -6 45 -12 52 -7 8 -8 11 -2 8 6 -3 11 0
11 8 0 8 -4 12 -9 9 -4 -3 -8 5 -8 19 0 14 11 32 30 46 17 12 28 26 25 32 -4
5 -3 9 2 8 22 -4 34 3 43 26 5 14 14 25 19 25 18 0 100 88 88 94 -7 2 -4 5 5
5 18 1 78 54 78 68 0 4 -30 9 -67 11 -37 2 -70 8 -74 13 -3 6 -9 10 -13 10 -3
-1 -27 -1 -53 -1 -35 0 -44 3 -33 10 8 5 10 10 5 10 -6 0 -17 -6 -24 -12 -8
-7 -11 -8 -8 -2 4 7 -8 12 -31 13 -102 5 -121 13 -122 49 0 6 -4 12 -10 12 -5
0 -10 8 -10 18 0 10 -5 23 -11 29 -9 9 -16 29 -18 56 -1 5 -5 5 -11 2 -9 -5
-15 24 -11 48 1 5 -3 6 -9 2 -5 -3 -10 2 -10 12 0 10 -9 31 -19 47 -11 17 -17
35 -14 40 4 6 2 7 -3 3 -5 -5 -13 7 -19 28 -10 35 -11 36 -28 17z"/>
<path d="M3960 8449 c0 -5 5 -7 12 -3 7 5 8 3 2 -7 -5 -8 -9 -263 -9 -568 l0
-554 32 -34 c18 -18 33 -38 33 -44 0 -5 4 -7 10 -4 5 3 12 -5 16 -19 3 -13 12
-27 21 -30 8 -3 11 -11 8 -16 -4 -6 -1 -9 6 -8 13 3 15 -2 18 -39 1 -16 3 -16
11 -3 8 12 10 11 10 -7 0 -12 4 -23 9 -25 6 -1 12 -16 15 -32 3 -16 14 -35 24
-42 16 -11 29 -41 36 -86 1 -3 4 -10 9 -14 4 -4 7 -16 7 -26 0 -10 4 -18 9
-18 9 0 27 -76 23 -92 -1 -5 2 -8 6 -8 4 0 9 -14 10 -32 2 -17 7 -37 12 -43 5
-6 11 -44 14 -85 3 -41 5 -1332 6 -2868 0 -1731 4 -2791 9 -2787 10 6 61 -40
61 -55 0 -5 9 -12 20 -15 11 -3 20 -13 20 -21 0 -8 11 -20 25 -26 23 -10 29
-20 26 -40 0 -5 5 -8 12 -8 8 0 25 -12 40 -27 14 -16 31 -33 38 -39 6 -6 30
-30 51 -53 22 -22 44 -41 49 -41 5 0 9 -10 10 -22 0 -13 3 -17 6 -11 4 12 73
-53 73 -69 0 -4 9 -10 20 -13 11 -3 20 -13 20 -21 0 -8 11 -20 25 -26 14 -6
25 -17 25 -25 0 -7 11 -19 25 -25 14 -6 25 -15 25 -20 0 -4 14 -20 30 -35 17
-14 30 -33 30 -40 0 -8 4 -12 9 -9 11 7 53 -29 44 -38 -3 -3 -2 -6 4 -6 5 0
20 -9 33 -20 13 -11 19 -20 15 -20 -4 0 3 -9 16 -20 13 -11 30 -24 37 -30 7
-6 10 -15 7 -21 -4 -5 0 -9 8 -9 7 0 26 -13 40 -30 15 -16 31 -30 36 -30 5 0
12 -9 16 -19 3 -10 13 -21 23 -23 16 -5 17 184 14 3371 -1 1857 -5 3416 -8
3466 -3 49 -10 95 -14 100 -5 6 -12 40 -16 75 -3 36 -10 67 -15 68 -5 2 -9 17
-9 33 0 17 -4 28 -9 25 -5 -3 -11 12 -15 35 -6 40 -9 47 -40 106 -9 17 -16 38
-16 47 0 9 -4 16 -10 16 -5 0 -10 9 -10 20 0 11 -4 20 -9 20 -5 0 -12 13 -16
30 -4 16 -14 36 -24 42 -10 7 -21 26 -25 41 -3 15 -11 25 -16 22 -6 -3 -10 2
-10 13 0 10 -10 24 -22 30 -13 6 -17 11 -9 11 9 1 4 10 -13 26 -14 13 -26 29
-26 35 0 6 -5 8 -12 4 -6 -4 -8 -3 -5 3 4 6 -7 24 -23 42 -17 17 -30 35 -30
39 0 5 -25 34 -56 65 -30 32 -52 57 -48 57 4 0 -6 11 -24 23 -17 13 -29 27
-25 30 3 4 -1 7 -11 7 -9 0 -15 4 -12 9 3 5 -5 12 -18 15 -14 3 -27 15 -31 26
-3 10 -15 22 -25 25 -10 3 -22 15 -25 26 -4 10 -11 17 -16 14 -5 -4 -9 -1 -9
4 0 6 -6 10 -12 9 -7 -2 -12 3 -10 10 1 6 -4 12 -11 12 -7 0 -21 11 -31 25
-10 13 -22 22 -26 20 -8 -5 -34 16 -42 32 -3 9 -89 67 -99 68 -3 0 -13 8 -22
17 -10 9 -35 27 -57 39 -21 12 -37 26 -34 31 3 4 -4 8 -15 8 -11 0 -26 7 -35
15 -8 8 -23 15 -33 15 -15 0 -16 2 -3 10 12 8 11 10 -7 10 -12 0 -25 5 -28 10
-4 6 -11 8 -16 5 -5 -4 -9 -1 -9 4 0 6 -7 11 -15 11 -8 0 -15 5 -15 10 0 6 -9
10 -20 10 -11 0 -20 5 -20 10 0 6 -7 10 -15 10 -8 0 -15 -5 -15 -11z"/>
</g>
</svg>
